<svg xmlns="http://www.w3.org/2000/svg" width="66.5" height="53.72" viewBox="0 0 66.5 53.72">
  <defs>
    <style>
      .diamond-award {
        fill: #fff;
        fill-rule: evenodd;
      }
    </style>
  </defs>
  <path class="diamond-award" d="M309.774,9002.46c-0.2-.05-0.407-0.09-0.606-0.14a1.35,1.35,0,0,1-.772-2.03,0.666,0.666,0,0,1,.95-0.33,0.7,0.7,0,0,1,.05.98c0,0.01,0,.01,0,0.01-0.045.06-.1,0.11-0.147,0.17a0.577,0.577,0,0,0-.184.62,0.665,0.665,0,0,0,.582.42,2.537,2.537,0,0,0,1.575-.28,5.447,5.447,0,0,0,1.574-1.12,12.442,12.442,0,0,1-.68-1.66,2.321,2.321,0,0,1,.336-1.9,1.421,1.421,0,0,1,1.949-.51,1.365,1.365,0,0,1,.525.53c0.129,0.2.234,0.42,0.37,0.67l0.263-.29c0.669-.76,1.311-1.57,2.022-2.28a3.173,3.173,0,0,1,2.286-.97,0.622,0.622,0,0,1,.679.37,1.175,1.175,0,0,0-.524-0.08,0.821,0.821,0,0,0-.46.34c-0.477.77-.965,1.53-1.377,2.33-0.667,1.29-1.278,2.63-1.913,3.94-0.036.08-.06,0.17-0.107,0.3a1.628,1.628,0,0,0,.96-0.5c0.352-.36.674-0.75,1.013-1.12a2.485,2.485,0,0,1,1.385-.93,0.4,0.4,0,0,1,.152-0.03c0.173,0.02.344,0.06,0.525,0.09a2.732,2.732,0,0,1-.163.44c-0.333.61-.685,1.21-1.018,1.82a2.417,2.417,0,0,0-.134.42l0.079,0.08a4.033,4.033,0,0,0,.357-0.19,9.409,9.409,0,0,0,2.036-2.14,1.162,1.162,0,0,1,1.146-.39c0.224,0.01.195,0.16,0.108,0.31-0.286.5-.572,1.01-0.842,1.52a3.032,3.032,0,0,0-.239.61c-0.076.26,0.068,0.41,0.312,0.3a2.673,2.673,0,0,0,1.268-1.13c0.1-.19.042-0.47,0.128-0.67a5.107,5.107,0,0,1,.525-0.98,0.709,0.709,0,0,1,.386-0.11,0.856,0.856,0,0,1,.055.4c-0.216.42-.473,0.83-0.706,1.25a0.432,0.432,0,0,0-.1.29,0.523,0.523,0,0,0,.322.2,0.921,0.921,0,0,0,.788-0.45,4.627,4.627,0,0,1,1.574-1.33,4.958,4.958,0,0,1,1.125-.35,0.5,0.5,0,0,1,.672.48,0.878,0.878,0,0,1,.921-0.42c0.118,0.02.231,0.07,0.346,0.1a2.254,2.254,0,0,1-.11.31c-0.331.6-.679,1.18-1,1.79a1.41,1.41,0,0,0-.063.48,1.213,1.213,0,0,0,.5-0.17c0.538-.58,1.049-1.18,1.561-1.77a1.2,1.2,0,0,0,.223-0.3,1.248,1.248,0,0,0,.1-0.49,0.694,0.694,0,0,1,.373-0.68,0.537,0.537,0,0,1,.719.06c-0.1.16-.2,0.3-0.287,0.46-0.112.19-.026,0.29,0.179,0.31,0.123,0.02.262,0.02,0.372,0.05,0.428,0.09.525,0.28,0.321,0.67s-0.454.81-.68,1.21a1.768,1.768,0,0,0-.171.37,0.923,0.923,0,0,0,.022.3,0.494,0.494,0,0,0,.278-0.07,14.409,14.409,0,0,0,1.089-1.08,4.561,4.561,0,0,1,2.287-1.58h0.029a0.748,0.748,0,0,1,1.05.43c0.44-.74.858-1.47,1.311-2.19,0.572-.87,1.176-1.73,1.777-2.59a1,1,0,0,1,.994-0.48,1.871,1.871,0,0,1,.323.09c-0.4.59-.787,1.13-1.144,1.7q-1.575,2.58-3.107,5.19a1.6,1.6,0,0,0-.1.57,1.577,1.577,0,0,0,.545-0.23c0.32-.29.6-0.64,0.9-0.96l0.212-.24a0.34,0.34,0,0,1,.034.1c-0.525.57-1.031,1.15-1.574,1.7a1.2,1.2,0,0,1-.6.23,0.547,0.547,0,0,1-.646-0.41,0.541,0.541,0,0,1-.012-0.16v-0.4l-0.428.4a1.815,1.815,0,0,1-1.131.57,0.715,0.715,0,0,1-.813-1,1.907,1.907,0,0,0,.087-0.44c-0.171.18-.339,0.37-0.512,0.55a2.188,2.188,0,0,1-1.141.79,0.793,0.793,0,0,1-.845-0.17,0.7,0.7,0,0,1-.034-0.83,10.737,10.737,0,0,1,.771-1.07c0.2-.26.41-0.49,0.619-0.74a0.84,0.84,0,0,0-1.081.12c-0.632.77-1.264,1.54-1.933,2.28a1.784,1.784,0,0,1-.772.45,0.592,0.592,0,0,1-.839-0.69,1.447,1.447,0,0,1,.018-0.24,3.5,3.5,0,0,1-.5.45,3.158,3.158,0,0,1-1.05.51,0.7,0.7,0,0,1-.834-0.97c0.037-.14.084-0.29,0.139-0.44a2.043,2.043,0,0,1-.685.35,2.366,2.366,0,0,1-.787-0.17,4.142,4.142,0,0,1-1.913,1.17,0.625,0.625,0,0,1-.821-0.85,6.769,6.769,0,0,1,.3-0.78l-0.06-.07a1.709,1.709,0,0,1-.192.26,18.255,18.255,0,0,1-1.393,1.22,0.821,0.821,0,0,1-1.1.09,0.908,0.908,0,0,1,.018-1.09c0.263-.49.562-0.97,0.806-1.5-0.15.14-.312,0.28-0.452,0.43-0.322.4-.667,0.78-1.031,1.15a6.381,6.381,0,0,1-1.007.61,0.837,0.837,0,0,0-.263.12,1.509,1.509,0,0,1-1.049.42c-0.2.04-.294-0.07-0.241-0.28,0.018-.07.039-0.14,0.044-0.17l-1.784-.88c-0.33.26-.687,0.57-1.076,0.83a3.442,3.442,0,0,1-1.71.66q-0.09.03-.171,0.06Zm3.41-2.11c0.092-.08.18-0.16,0.263-0.24,0.441-.51.889-1.01,1.312-1.53s0.44-.64-0.019-1.18a1.831,1.831,0,0,0-.22-0.23,0.866,0.866,0,0,0-1.422.28,3.187,3.187,0,0,0,.084,2.9h0Zm6.465-5.85a3.734,3.734,0,0,0-1.9.86,15.409,15.409,0,0,0-2.3,2.63,0.462,0.462,0,0,0-.066.29c0.026,0.5.068,1,.1,1.5a2.373,2.373,0,0,0,.014.31c0.4-.67.742-1.35,1.1-2.01a9.192,9.192,0,0,1,1.69-2.46c0.406-.4.879-0.73,1.362-1.12h0Zm-4.418,3.87a0.32,0.32,0,0,0-.105.04c-0.575.66-1.149,1.33-1.713,2a0.276,0.276,0,0,0,0,.27,2.593,2.593,0,0,0,1.249.78,0.207,0.207,0,0,0,.285-0.08,0.216,0.216,0,0,0,.024-0.07,7.115,7.115,0,0,0,.318-1.01,4.584,4.584,0,0,0-.061-1.93h0Zm12.483,1.08a0.263,0.263,0,0,0-.388-0.28,1.1,1.1,0,0,0-.283.2,6.52,6.52,0,0,0-1.425,1.9,0.762,0.762,0,0,0-.073.59c0.2,0.19.425-.03,0.6-0.17a5.553,5.553,0,0,0,1.514-2.02,1.361,1.361,0,0,0,.055-0.22h0Zm8.047-.05a0.545,0.545,0,0,0-.139-0.22,0.715,0.715,0,0,0-.427.11,6.26,6.26,0,0,0-1.575,2.03c-0.086.17-.262,0.41-0.036,0.55a0.658,0.658,0,0,0,.524-0.14,5.178,5.178,0,0,0,1.574-2.08,1.085,1.085,0,0,0,.077-0.25h0Zm-5.625-40.98c1.126-.9,2.293-1.76,3.369-2.73a25.765,25.765,0,0,0,2.377-2.51,4.371,4.371,0,0,0,.721-1.34,1,1,0,0,0-.847-1.45,7.42,7.42,0,0,0-2,.02,21.659,21.659,0,0,0-5.145,1.59,1.131,1.131,0,0,0-.17.09c0.1,0.12.191,0.23,0.283,0.34a4.316,4.316,0,0,1,1.1,2.75,4.125,4.125,0,0,1-.787,2.48,7.812,7.812,0,0,1-3.521,2.65,14.564,14.564,0,0,1-6.426,1.05,15.385,15.385,0,0,1-3.977-.72,0.414,0.414,0,0,0-.326.05,11,11,0,0,0-2.067,2.45,3.815,3.815,0,0,0-.373.89,0.943,0.943,0,0,0,.714,1.29,4.493,4.493,0,0,0,1.674.09c1.1-.19,2.178-0.5,3.264-0.76,0.089-.02.176-0.05,0.262-0.07l0.029,0.1c-1.125.31-2.246,0.65-3.374,0.94a7.957,7.957,0,0,1-2.524.26,2.929,2.929,0,0,1-.59-0.08,1.162,1.162,0,0,1-.9-1.63,5,5,0,0,1,1.081-1.86c0.553-.65,1.152-1.25,1.737-1.87a1.379,1.379,0,0,1,.312-0.2l-0.507-.27a7.834,7.834,0,0,1-2.39-1.81,4.216,4.216,0,0,1,.187-6.01,9.478,9.478,0,0,1,4.6-2.52,14.814,14.814,0,0,1,9.928.71,11.825,11.825,0,0,1,1.551.9,0.5,0.5,0,0,0,.537.05,33.668,33.668,0,0,1,6.229-2.24,8.777,8.777,0,0,1,2.886-.28,1.142,1.142,0,0,1,.186.01,1.243,1.243,0,0,1,1.081,1.89,6.987,6.987,0,0,1-1.414,2.15,32.366,32.366,0,0,1-5.234,4.56c-0.507.36-1.023,0.72-1.535,1.07v-0.03Zm-6.058-8.02a10.965,10.965,0,0,0-3.917-.79c0.706,2.42,1.4,4.79,2.1,7.16h0.071Zm-4.628-.76a2.947,2.947,0,0,0-.3-0.01,11.71,11.71,0,0,0-3.308.7,0.278,0.278,0,0,0-.194.42c0.524,1.78,1.049,3.56,1.556,5.34,0.065,0.23.139,0.45,0.207,0.67h0.079C318.138,8954.4,318.8,8952.03,319.45,8949.64Zm1.989,11.13a0.653,0.653,0,0,0,0-.14q-0.395-1.425-.788-2.85a0.318,0.318,0,0,0-.249-0.15c-0.693-.02-1.382,0-2.075,0a0.233,0.233,0,0,0-.278.19c0,0.01,0,.01,0,0.02-0.105.43-.231,0.85-0.346,1.28-0.131.48-.263,0.96-0.4,1.47a11.547,11.547,0,0,0,4.143.18h0Zm3.98-9.66c0.642,2.19,1.264,4.32,1.9,6.49,1.519-2.1.79-4.89-1.894-6.49h0Zm-12.974,6.46,1.757-6.34C311.859,8952.64,310.86,8955.38,312.445,8957.57Zm10.854,2.79a8.417,8.417,0,0,0,2.379-1.14,0.376,0.376,0,0,0,.111-0.32c-0.076-.36-0.189-0.71-0.281-1.06a0.242,0.242,0,0,0-.263-0.22h-2.072a0.309,0.309,0,0,0-.218.07,1.756,1.756,0,0,0-.181.78,18.64,18.64,0,0,0,.525,1.89h0Zm-6.806,0c-0.032-.15-0.047-0.24-0.071-0.33-0.2-.72-0.4-1.43-0.582-2.15a0.3,0.3,0,0,0-.368-0.27c-0.637.02-1.277,0-1.918,0.02a0.39,0.39,0,0,0-.307.15c-0.047.24-.3,0.49-0.055,0.73a8.273,8.273,0,0,0,3.3,1.86v-0.01Zm2.9-7.13H319.3c-0.328,1.2-.653,2.4-0.989,3.62H320.4c-0.342-1.21-.672-2.41-1-3.6v-0.02Zm5.827,3.64c-0.346-1.24-.682-2.45-1.021-3.66h-0.076l-0.984,3.65Zm-10.679-3.66h-0.07l-1,3.66h2.067Zm40.342,24.99a0.509,0.509,0,0,1,0,.15c-0.524.56-1.031,1.12-1.574,1.66a1.194,1.194,0,0,1-.574.22,0.562,0.562,0,0,1-.675-0.43,0.508,0.508,0,0,1-.013-0.15v-0.37c-0.086.08-.15,0.13-0.21,0.18a2.34,2.34,0,0,1-1.152.73,0.757,0.757,0,0,1-.963-1.08,0.774,0.774,0,0,0,.058-0.32c-0.055.05-.113,0.1-0.162,0.15-0.229.23-.444,0.48-0.683,0.7a2.708,2.708,0,0,1-.511.36,0.829,0.829,0,0,1-1.05,0,0.8,0.8,0,0,1-.031-0.99c0.223-.45.506-0.87,0.748-1.32a1.435,1.435,0,0,0,.084-0.39,0.851,0.851,0,0,0-.4.12c-0.633.56-1.249,1.14-1.866,1.73a3.938,3.938,0,0,0-.488.52,1.108,1.108,0,0,1-.939.42c-0.283.02-.375-0.1-0.262-0.36a10.659,10.659,0,0,1,.49-0.98c0.176-.33.4-0.69,0.6-1.04a2.5,2.5,0,0,0,.129-0.33l-0.071-.06a1.168,1.168,0,0,0-.286.19c-0.372.39-.737,0.8-1.1,1.2a6.616,6.616,0,0,1-.5.53,0.66,0.66,0,0,1-.4.22,1.706,1.706,0,0,0-1.049.37,4.469,4.469,0,0,1-1.194.32,0.9,0.9,0,0,1-.976-1.24,0.679,0.679,0,0,0,.016-0.31,7.568,7.568,0,0,1-.651.71,8.021,8.021,0,0,1-1,.74,0.71,0.71,0,0,1-.882-0.05,0.739,0.739,0,0,1-.086-0.86,5.507,5.507,0,0,1,.412-0.81c0.147-.26.317-0.52,0.467-0.79a0.644,0.644,0,0,0,.026-0.23,0.766,0.766,0,0,0-.262,0,11.409,11.409,0,0,0-.942.79c-0.525.53-1.05,1.05-1.525,1.59a1.263,1.263,0,0,1-.949.4c-0.263.02-.36-0.1-0.25-0.35,0.2-.44.425-0.86,0.648-1.29,0.139-.26.3-0.53,0.441-0.79a2.5,2.5,0,0,0,.11-0.33l-0.089-.1a2.724,2.724,0,0,0-.512.33c-0.721.71-1.44,1.41-2.127,2.15a1.259,1.259,0,0,1-.95.39c-0.281,0-.362-0.09-0.234-0.35,0.328-.64.685-1.27,1.026-1.91,0.079-.14.134-0.3,0.2-0.45l-0.1-.07a4.814,4.814,0,0,0-.394.32c-0.5.56-.984,1.12-1.488,1.67a2.332,2.332,0,0,1-1.2.87,0.6,0.6,0,0,1-.826-0.68v-0.26a3.01,3.01,0,0,1-.294.28,8.567,8.567,0,0,1-1.049.64,0.762,0.762,0,0,1-.9-0.17,0.9,0.9,0,0,1-.084-0.9c0.023-.09.057-0.18,0.084-0.26l-0.1-.09a0.9,0.9,0,0,1-.1.21c-0.281.29-.559,0.6-0.863,0.87a1.318,1.318,0,0,1-1.1.35,0.411,0.411,0,0,1-.424-0.41c0-.02,0-0.03,0-0.04a1.637,1.637,0,0,1,.152-0.66c0.276-.54.586-1.05,0.835-1.65l-1.273,1.31c0.3-1.1,2.026-2.13,2.816-1.69-0.061.11-.121,0.21-0.184,0.32-0.323.54-.648,1.08-0.966,1.62a1.566,1.566,0,0,0-.165.41,1.082,1.082,0,0,0,0,.29,0.75,0.75,0,0,0,.281-0.08c0.37-.37.742-0.74,1.086-1.13a4.557,4.557,0,0,1,2.241-1.55,1.619,1.619,0,0,1,.309-0.05,0.583,0.583,0,0,1,.774.48,0.91,0.91,0,0,1,.953-0.42c0.335,0.02.375,0.08,0.212,0.37-0.337.59-.674,1.19-1.01,1.78a0.8,0.8,0,0,0-.11.26,0.333,0.333,0,0,0,.034.26,0.286,0.286,0,0,0,.283,0,6.863,6.863,0,0,0,.758-0.7c0.46-.49.887-1.01,1.354-1.49a1.463,1.463,0,0,1,1.063-.54,0.448,0.448,0,0,1,.475.62,3.914,3.914,0,0,1-.262.64,6.79,6.79,0,0,0-.436.88l0.262-.26c0.559-.52,1.107-1.05,1.679-1.58a1.224,1.224,0,0,1,.932-0.31,0.393,0.393,0,0,1,.435.46,4.817,4.817,0,0,1-.28.95,6.829,6.829,0,0,1-.378.69l0.06,0.05c0.2-.21.394-0.43,0.609-0.63a16.169,16.169,0,0,1,1.364-1.21,2.054,2.054,0,0,1,.9-0.3,0.46,0.46,0,0,1,.525.63,4.717,4.717,0,0,1-.381.88c-0.152.31-.346,0.6-0.493,0.91a0.235,0.235,0,1,0,.362.26,10.706,10.706,0,0,0,.929-0.94,5,5,0,0,1,1.954-1.54,4.331,4.331,0,0,1,.942-0.18,0.2,0.2,0,0,1,.1.04,17.611,17.611,0,0,0-1.249,1.47,6.02,6.02,0,0,0-.577,1.24,0.379,0.379,0,0,0,.081.33,0.3,0.3,0,0,0,.305-0.02c0.364-.33.716-0.67,1.049-1.02a0.734,0.734,0,0,0,.066-0.24,4.323,4.323,0,0,1,.346-0.89,0.713,0.713,0,0,0,.2-0.82,0.631,0.631,0,0,1,.611.6,2.071,2.071,0,0,1-.472,1.4c-0.069.1-.139,0.2-0.226,0.32a0.554,0.554,0,0,0,.632-0.21c0.339-.36.646-0.75,0.981-1.11a7.909,7.909,0,0,1,.837-0.81,1.4,1.4,0,0,1,.649-0.26c0.524-.08.76,0.22,0.572,0.72a8.849,8.849,0,0,1-.512,1.01l-0.176.31,0.066,0.05c0.388-.39.755-0.81,1.167-1.17a7.242,7.242,0,0,1,1.118-.8,0.811,0.811,0,0,1,1,.01,0.8,0.8,0,0,1-.035.99c-0.2.38-.422,0.75-0.629,1.12a0.984,0.984,0,0,0-.118.29,0.29,0.29,0,0,0,.05.23,0.227,0.227,0,0,0,.225-0.02,5.775,5.775,0,0,0,.646-0.54c0.377-.4.708-0.84,1.109-1.21a3.354,3.354,0,0,1,2.015-1c0.467-.03.525,0.01,0.727,0.49,0.079-.12.142-0.22,0.2-0.32a38.589,38.589,0,0,1,2.952-4.54,1.011,1.011,0,0,1,.952-0.42,1.875,1.875,0,0,1,.328.09c-0.21.3-.4,0.56-0.572,0.83q-1.8,2.925-3.586,5.85a3.7,3.7,0,0,0-.244.51,0.265,0.265,0,0,0,.023.23,0.306,0.306,0,0,0,.263.03,1.725,1.725,0,0,0,.38-0.26c0.289-.31.564-0.63,0.845-0.94Zm-1.926-.82a0.254,0.254,0,0,0-.385-0.27,0.864,0.864,0,0,0-.284.19,6.653,6.653,0,0,0-1.427,1.9,0.753,0.753,0,0,0-.073.59c0.2,0.19.425-.03,0.6-0.17a5.362,5.362,0,0,0,1.511-2.02A0.962,0.962,0,0,0,352.959,8977.38Zm-23.327.04c0-.31-0.16-0.41-0.391-0.3a0.788,0.788,0,0,0-.262.18,6.806,6.806,0,0,0-1.446,1.92c-0.089.19-.286,0.44-0.044,0.59a0.672,0.672,0,0,0,.548-0.17,5.253,5.253,0,0,0,1.545-2.03,0.619,0.619,0,0,0,.05-0.19h0Zm-14.7,16.61-4.085-8.23h8.168Zm14.331-8.24h8.178l-4.083,8.24C331.978,8991.27,330.627,8988.55,329.26,8985.79Zm-7.417-12.17a3.716,3.716,0,0,0-1.606-.9,4.1,4.1,0,0,0-5.1,2.48,3.015,3.015,0,0,0-.168,1.7,1.079,1.079,0,0,0,1.2.95,1.222,1.222,0,0,0,.191-0.04,3.072,3.072,0,0,0,2.186-2.8,0.739,0.739,0,0,0-.389-0.67,0.664,0.664,0,0,0-.734.12,3.065,3.065,0,0,0-.59.5,1.82,1.82,0,0,1,.695-0.75,0.86,0.86,0,0,1,1.285.72,2.626,2.626,0,0,1-2.178,3.01,2.314,2.314,0,0,1-.372.03,2.915,2.915,0,0,1-.929-0.1,1.763,1.763,0,0,1-1.159-2.38,3.879,3.879,0,0,1,2.1-2.43,4.989,4.989,0,0,1,5.57.29,0.267,0.267,0,0,0,.371.01s0.008-.01.012-0.01a3.883,3.883,0,0,1,1.787-.73,1.214,1.214,0,0,1,1.193.39,2.492,2.492,0,0,0-2.846.75,10.843,10.843,0,0,1,.677,1.09,3.73,3.73,0,0,1,.084,3.56,3.289,3.289,0,0,1-2.64,1.7,13.711,13.711,0,0,1-3.447-.02,13.791,13.791,0,0,0-1.438.05c-0.743,0-1.488,0-2.228-.02a0.811,0.811,0,0,1-.375-0.21,1.016,1.016,0,0,1,.373-0.3,17.96,17.96,0,0,1,1.941-.04c0.436,0.02.866,0.14,1.312,0.19a0.458,0.458,0,0,0,.323-0.07,6.752,6.752,0,0,0,1.036-.94,14.213,14.213,0,0,0,1.05-1.65,12.66,12.66,0,0,1,2.673-3.32A1.339,1.339,0,0,0,321.843,8973.62Zm-4.723,6.17a3.907,3.907,0,0,0,4.515-1.35c1.186-1.56,1.118-3.8.491-4.41a3.612,3.612,0,0,0-.281.42c-0.281.5-.524,1.02-0.837,1.51a22.079,22.079,0,0,1-1.359,2.07,5.734,5.734,0,0,1-2.521,1.76H317.12Zm26.893,6.56h6.85c-1.139,2.18-2.267,4.32-3.424,6.53Zm-43.191,6.53-3.43-6.53h6.856Zm9.476-16.59c-0.107.16-.207,0.29-0.288,0.44-0.116.2-.05,0.32,0.181,0.34,0.125,0.01.249,0.02,0.372,0.04,0.412,0.09.509,0.26,0.318,0.66-0.228.44-.5,0.87-0.724,1.31a2.238,2.238,0,0,0-.1.58,1.922,1.922,0,0,0,.5-0.25c0.321-.3.609-0.64,0.911-0.96a2.116,2.116,0,0,1,.233-0.22,3.818,3.818,0,0,1-1.936,1.9,0.728,0.728,0,0,1-.845-0.17,0.721,0.721,0,0,1-.042-0.83,3.529,3.529,0,0,1,.457-0.7c0.262-.33.538-0.62,0.8-0.93a0.288,0.288,0,0,0,.068-0.22,0.251,0.251,0,0,0-.21-0.1,0.966,0.966,0,0,0-.926.4,16.864,16.864,0,0,1-1.648,1.98,2.384,2.384,0,0,1-.965.61,0.63,0.63,0,0,1-.848-0.8c0.068-.27.187-0.55,0.247-0.85-0.179.19-.349,0.38-0.525,0.56a6.615,6.615,0,0,1-.714.66,2.518,2.518,0,0,1-.679.38,0.712,0.712,0,0,1-.8-0.08,0.663,0.663,0,0,1-.071-0.79c0.244-.49.525-0.97,0.813-1.45,0.05-.09.116-0.17,0.173-0.26l-0.055-.06a5.452,5.452,0,0,0-.456.42c-0.391.42-.769,0.86-1.155,1.29a0.815,0.815,0,0,1-.787.29,0.483,0.483,0,0,0-.3.11,2.893,2.893,0,0,1-1.574.58,0.921,0.921,0,0,1-1.02-1.25l0.052-.27-0.233.06c0.377-.98,2.23-2.05,3.043-1.77a0.78,0.78,0,0,1-.115.14,4.746,4.746,0,0,0-1.674,2.23,1.941,1.941,0,0,0,0,.68,2.6,2.6,0,0,0,.6-0.27,1.973,1.973,0,0,0,.9-1.37,1.14,1.14,0,0,1,.3-0.61,0.658,0.658,0,0,0,.186-0.76,0.676,0.676,0,0,1,.63.72,0.612,0.612,0,0,1-.029.15,8,8,0,0,1-.5,1.14,1.6,1.6,0,0,1-.186.28l0.068,0.1a1.914,1.914,0,0,0,.5-0.26c0.307-.3.574-0.64,0.871-0.95s0.556-.57.855-0.83a1.581,1.581,0,0,1,1.194-.39c0.343,0.03.38,0.08,0.207,0.37-0.341.57-.685,1.13-1.018,1.7a2.518,2.518,0,0,0-.2.46,0.738,0.738,0,0,0,0,.23,0.559,0.559,0,0,0,.262-0.02,3.588,3.588,0,0,0,.583-0.48c0.55-.6,1.1-1.21,1.613-1.84a1.084,1.084,0,0,1,1.05-.46c0.28,0.03.335,0.11,0.2,0.36-0.286.52-.577,1.07-0.86,1.6a3.99,3.99,0,0,0-.229.56,0.186,0.186,0,0,0,.294.22,0.952,0.952,0,0,0,.323-0.25c0.593-.69,1.186-1.38,1.76-2.1a0.554,0.554,0,0,0,.061-0.37,0.664,0.664,0,0,1,.354-0.68A0.573,0.573,0,0,1,310.3,8976.29Zm-12.685.64a1.086,1.086,0,0,0,1.076-.39,1,1,0,0,1,.367-0.33,0.351,0.351,0,0,1,.315.03,0.517,0.517,0,0,1,.013.32,0.237,0.237,0,0,1-.079.13,16.209,16.209,0,0,1-1.173,1.23l0.189-.85a4.324,4.324,0,0,0-.719.04,0.66,0.66,0,0,0-.3.28,6.534,6.534,0,0,1-2.839,2.55,3.39,3.39,0,0,1-2.251.37,1.379,1.379,0,0,1-1.141-1.58,1.335,1.335,0,0,1,.091-0.32,0.7,0.7,0,1,1,1.312.42,2.463,2.463,0,0,1-.244.5,0.525,0.525,0,0,0,.4.86,1.7,1.7,0,0,0,1.543-.46,17.009,17.009,0,0,0,1.38-1.66c0.216-.32.415-0.65,0.6-0.98l-1.149.05a0.747,0.747,0,0,1,.737-0.2,0.626,0.626,0,0,0,.711-0.4,9.7,9.7,0,0,1,2.067-2.56,1.716,1.716,0,0,1,.284-0.19l-0.061-.1a13.571,13.571,0,0,0-1.385-.34c-0.727-.14-1.459-0.26-2.193-0.34a2.887,2.887,0,0,0-1.05.16,1.832,1.832,0,0,0-1.411,1.63,1.916,1.916,0,0,0,.947,2.07c0.023,0,.044.03,0.047,0.1a1.507,1.507,0,0,1-.286-0.11,2.052,2.052,0,0,1-.986-1.47,2.749,2.749,0,0,1,2.239-3.17c0.031,0,.062-0.01.093-0.01a6.054,6.054,0,0,1,2.794.42c0.525,0.17,1.05.38,1.574,0.54a0.859,0.859,0,0,0,.525-0.04,3.02,3.02,0,0,1,1.446-.34,0.66,0.66,0,0,1,.388.09,1.009,1.009,0,0,1,.315.45,0.387,0.387,0,0,1-.3.46,0.045,0.045,0,0,0-.034.01,3.113,3.113,0,0,1-1.2.11,1.022,1.022,0,0,0-1.293.62c-0.41.76-.879,1.5-1.312,2.25A1.4,1.4,0,0,0,297.613,8976.93Zm2.251-3.51a2.242,2.242,0,0,0,1.48.19,1.262,1.262,0,0,0,.336-0.32,1.22,1.22,0,0,0-.331-0.28,1.531,1.531,0,0,0-1.485.41h0Zm42.344,12.36-7.294,7.73-0.047-.03c0.346-.67.69-1.33,1.036-1.99q1.425-2.745,2.86-5.47a0.431,0.431,0,0,1,.275-0.23C340.064,8985.77,341.087,8985.78,342.208,8985.78Zm-28.871,7.72-7.284-7.73h3.075a0.463,0.463,0,0,1,.344.18q1.952,3.7,3.88,7.41a0.825,0.825,0,0,1,.042.11Zm18.481,0.06-7.347-7.79h3.073a0.456,0.456,0,0,1,.341.18q1.982,3.75,3.935,7.52C333.775,8997.24,331.818,8993.52,331.818,8993.56Zm-15.4-.04q1.69-3.24,3.374-6.46c0.189-.37.37-0.73,0.572-1.09a0.394,0.394,0,0,1,.244-0.19c1.034-.01,2.067,0,3.175,0l-7.328,7.78Zm18.77-11.4h4.051a0.435,0.435,0,0,1,.244.11c0.834,0.74,1.661,1.48,2.49,2.22q0.065,0.075.12,0.15H338.92a0.736,0.736,0,0,1-.357-0.08q-1.7-1.17-3.384-2.34ZM323.7,8984.6h-1.8a5.862,5.862,0,0,1-1.626-.04,5.76,5.76,0,0,1-1.359-.89c-0.717-.5-1.428-0.99-2.2-1.53,0.15,0,.226-0.02.3-0.02h3.673a0.62,0.62,0,0,1,.393.13c0.837,0.73,1.664,1.48,2.493,2.22A0.721,0.721,0,0,1,323.7,8984.6Zm-17.5-.06,2.862-2.37a0.365,0.365,0,0,1,.2-0.06h3.868c-0.129.1-.2,0.16-0.284,0.22l-3.048,2.1a0.713,0.713,0,0,1-.339.15c-1.078.01-2.157,0-3.232,0Zm18.345,0.06c0.787-.64,1.519-1.19,2.183-1.82a2.386,2.386,0,0,1,1.915-.68c0.939,0.06,1.881.02,2.886,0.02-0.105.09-.157,0.14-0.22,0.19-1.024.71-2.044,1.42-3.075,2.12a1,1,0,0,1-.525.17C326.691,8984.61,325.663,8984.6,324.54,8984.6Zm5.473-.02c1.1-.79,2.156-1.53,3.214-2.26a0.3,0.3,0,0,1,.262.02c1.05,0.72,2.1,1.46,3.188,2.24h-6.664Zm-11.836.01h-6.6l1.532-1.09c0.54-.38,1.078-0.76,1.627-1.13a0.334,0.334,0,0,1,.32-0.04c1.049,0.72,2.1,1.46,3.148,2.2Zm30.553,7.76,1.212-2.2c0.654-1.19,1.312-2.36,1.955-3.56a0.435,0.435,0,0,1,.443-0.26h2.233l-5.8,6.04Zm-49.22.06-5.793-6.05c0.11,0,.186-0.02.262-0.02h1.984a0.477,0.477,0,0,1,.348.18c1.073,1.92,2.138,3.85,3.2,5.77A1.127,1.127,0,0,1,299.51,8992.41Zm6.921-4.37-4.316,4.39-0.042-.03,3.167-5.74Zm39.71,4.38-4.309-4.38,1.189-1.37c1.068,1.94,2.117,3.84,3.167,5.74Zm8.382-7.05h-2.492a0.6,0.6,0,0,1-.291-0.09c-0.9-.58-1.8-1.16-2.69-1.75a0.584,0.584,0,0,1-.092-0.11,16.77,16.77,0,0,0,1.876-.01,2.6,2.6,0,0,1,2.388.85A14.652,14.652,0,0,0,354.523,8985.37Zm-55.244-1.89c-0.939.61-1.876,1.23-2.815,1.83a0.384,0.384,0,0,1-.208.06h-2.518L295,8984.3c0.044-.03.085-0.07,0.124-0.1a2.294,2.294,0,0,1,2.148-.79c0.654,0.06,1.312.01,1.979,0.01Zm4.334,1.88H298.02c0.162-.12.262-0.19,0.375-0.27,0.732-.49,1.472-0.97,2.2-1.46a0.339,0.339,0,0,1,.443,0c0.787,0.52,1.575,1.05,2.362,1.56C303.458,8985.24,303.511,8985.28,303.613,8985.36Zm46.641,0h-5.617l0.968-.65c0.551-.37,1.1-0.73,1.661-1.08a0.373,0.373,0,0,1,.325-0.03C348.452,8984.16,349.315,8984.73,350.254,8985.36Zm-7.545-1.92h3.24l-0.745.49c-0.341.23-.682,0.46-1.029,0.67a0.324,0.324,0,0,1-.262.04c-0.428-.37-0.842-0.75-1.259-1.12Zm-40.413,0h3.345c-0.152.16-.262,0.26-0.359,0.37-0.286.26-.569,0.52-0.866,0.77a0.307,0.307,0,0,1-.262.07C303.55,8984.27,302.96,8983.88,302.3,8983.44Zm24-8.05a0.792,0.792,0,0,1,.672-0.96c0.356-.03.524,0.16,0.385,0.5a1.584,1.584,0,0,1-.758.8c-0.149.08-.241,0.03-0.262-0.13A1.712,1.712,0,0,1,326.3,8975.39Z" transform="translate(-291.062 -8948.75)"/>
</svg>
