<svg xmlns="http://www.w3.org/2000/svg" width="55.125" height="53.63" viewBox="0 0 55.125 53.63">
  <defs>
    <style>
      .lotte-hotels-resorts {
        fill: #fff;
        fill-rule: evenodd;
      }
    </style>
  </defs>
  <path class="lotte-hotels-resorts" d="M179.205,8998.61h0.637v1.53h1.732v-1.53h0.646v3.68h-0.646v-1.55h-1.732v1.55h-0.637v-3.68Zm4,1.85h0a1.878,1.878,0,0,1,1.85-1.91h0.055a1.858,1.858,0,0,1,1.9,1.83c0,0.02,0,.04,0,0.06h0a1.873,1.873,0,0,1-1.842,1.9H185.1a1.854,1.854,0,0,1-1.9-1.81C183.2,9000.51,183.2,9000.48,183.2,9000.46Zm3.149,0h0a1.255,1.255,0,0,0-1.2-1.31h-0.041a1.232,1.232,0,0,0-1.229,1.24c0,0.02,0,.03,0,0.05h0a1.25,1.25,0,0,0,1.2,1.3h0.032a1.226,1.226,0,0,0,1.214-1.24c0-.02,0-0.03,0-0.04h0.015Zm2.346-1.26h-1.157v-0.59H190.5v0.59h-1.158v3.09H188.7v-3.09Zm2.607-.59h2.7v0.58h-2.055v0.96h1.819v0.58h-1.819v0.98h2.079v0.58h-2.724v-3.68Zm3.716,0h0.637v3.09h1.913v0.59h-2.55v-3.68Zm3.251,3.14,0.378-.46a1.7,1.7,0,0,0,1.149.48,0.544,0.544,0,0,0,.646-0.47h0c0-.26-0.15-0.4-0.787-0.56a1.248,1.248,0,0,1-1.213-1.1h0a1.1,1.1,0,0,1,1.164-1.06h0.08a2.028,2.028,0,0,1,1.315.46l-0.339.49a1.644,1.644,0,0,0-.992-0.38,0.507,0.507,0,0,0-.59.44h0c0,0.28.165,0.41,0.866,0.58a1.194,1.194,0,0,1,1.165,1.08h0a1.136,1.136,0,0,1-1.3,1.1A2.215,2.215,0,0,1,198.273,9001.75Zm6.968,0.11a1.561,1.561,0,0,1-1.11.48,1.081,1.081,0,0,1-1.184-.98,0.549,0.549,0,0,1,0-.07h0a1.1,1.1,0,0,1,.787-1.03,1.186,1.186,0,0,1-.307-0.79h0a0.967,0.967,0,0,1,1-.94h0.052a0.91,0.91,0,0,1,.958.85,0.341,0.341,0,0,1,0,.05h0a0.99,0.99,0,0,1-.787.95l0.622,0.64a5.4,5.4,0,0,0,.394-0.71l0.48,0.27a5.292,5.292,0,0,1-.5.79l0.575,0.6-0.473.35Zm-0.363-.37-0.787-.8a0.681,0.681,0,0,0-.48.61h0a0.554,0.554,0,0,0,.571.53h0.035A1,1,0,0,0,204.878,9001.49Zm0-2.01h0a0.393,0.393,0,0,0-.377-0.41h-0.032a0.422,0.422,0,0,0-.441.41v0.04h0a0.8,0.8,0,0,0,.276.54,0.681,0.681,0,0,0,.559-0.58h0.015Zm3.315-.87h1.622a1.4,1.4,0,0,1,1.047.36,1.136,1.136,0,0,1,.3.8h0a1.116,1.116,0,0,1-.858,1.12l0.976,1.4h-0.787l-0.89-1.28h-0.787v1.28h-0.638Zm1.575,1.82a0.681,0.681,0,0,0,.787-0.61h0a0.646,0.646,0,0,0-.787-0.61h-0.937v1.24Zm2.409-1.82h2.692v0.58h-2.015v0.96h1.818v0.58h-1.818v0.98h2.078v0.58h-2.755v-3.68Zm3.464,3.14,0.386-.46a1.682,1.682,0,0,0,1.141.48,0.544,0.544,0,0,0,.646-0.47h0c0-.26-0.142-0.4-0.788-0.56a1.242,1.242,0,0,1-1.212-1.1h0a1.1,1.1,0,0,1,1.163-1.06h0.081a2.009,2.009,0,0,1,1.307.46l-0.339.49a1.644,1.644,0,0,0-.992-0.38,0.507,0.507,0,0,0-.59.44h0c0,0.28.165,0.41,0.866,0.58a1.194,1.194,0,0,1,1.165,1.08h0a1.136,1.136,0,0,1-1.3,1.1A2.2,2.2,0,0,1,215.641,9001.75Zm3.558-1.29h0a1.879,1.879,0,0,1,1.85-1.91h0.056a1.853,1.853,0,0,1,1.889,1.82v0.07h0a1.9,1.9,0,1,1-3.795,0v0.02Zm3.15,0h0a1.249,1.249,0,0,0-1.18-1.31H221.12a1.232,1.232,0,0,0-1.229,1.24c0,0.02,0,.03,0,0.05h0a1.25,1.25,0,0,0,1.188,1.3h0.048a1.225,1.225,0,0,0,1.173-1.28h0.048Zm1.637-1.85h1.622a1.4,1.4,0,0,1,1.047.36,1.127,1.127,0,0,1,.307.8h0a1.126,1.126,0,0,1-.866,1.12l0.984,1.39h-0.787l-0.842-1.27h-0.788v1.28h-0.645Zm1.575,1.82a0.681,0.681,0,0,0,.787-0.61h0a0.643,0.643,0,0,0-.787-0.61h-0.9v1.24Zm3.243-1.23h-1.157v-0.59H230.6v0.59h-1.157v3.09H228.8v-3.09Zm2.386,2.55,0.386-.46a1.7,1.7,0,0,0,1.149.48,0.536,0.536,0,0,0,.638-0.47h0c0-.26-0.142-0.4-0.787-0.56a1.234,1.234,0,0,1-1.2-1.1h0a1.118,1.118,0,0,1,1.148-1.07,0.265,0.265,0,0,0,.088.01,2.054,2.054,0,0,1,1.323.46l-0.347.49a1.683,1.683,0,0,0-1.047-.41,0.5,0.5,0,0,0-.59.44h0c0,0.29.165,0.42,0.866,0.59a1.179,1.179,0,0,1,1.157,1.07h0a1.123,1.123,0,0,1-1.291,1.1A2.214,2.214,0,0,1,231.19,9001.75ZM194.242,8984c-3.866,0-6.188,2.4-6.188,5.42s2.322,5.41,6.188,5.41,6.188-2.39,6.188-5.41S198.108,8984,194.242,8984Zm0,9.67c-1.85,0-3.259-1.9-3.259-4.25s1.409-4.25,3.259-4.25,3.267,1.91,3.267,4.25S196.092,8993.67,194.242,8993.67Zm6.716-8.06h4.078v8.77H208.1v-8.77h3.441v-1.21H200.958v1.21Zm11.7,0h3.432v8.77h3.071v-8.77h4.078v-1.21H212.657v1.21Zm-30.713,6.99v-8.2H179v8.78a1.174,1.174,0,0,0,1.165,1.18h7.543v-1.2h-5.173a0.573,0.573,0,0,1-.59-0.56h0Zm42.963-7.01v7.61a1.187,1.187,0,0,0,1.173,1.19h8.031v-1.19H228.45a0.59,0.59,0,0,1-.59-0.6v-2.94h6.164v-1.16H227.86v-2.33a0.582,0.582,0,0,1,.566-0.59h5.685v-1.18H226.08A1.18,1.18,0,0,0,224.907,8985.59Zm-6.676-28.43-5.889-5.99a8.1,8.1,0,0,0-11.573,0l-5.881,5.96a8.387,8.387,0,0,0,0,11.73l5.881,5.97a8.14,8.14,0,0,0,11.573,0l5.889-5.97A8.487,8.487,0,0,0,218.231,8957.16Zm-15.124,14.62h-0.039a0.893,0.893,0,0,1-.638-1.49,0.956,0.956,0,0,1,.6-0.28,0.881,0.881,0,0,1,.079,1.76v0.01Zm10.447-3.68a7.711,7.711,0,0,1-4.212,3.61h0a4.161,4.161,0,0,1-.787.08,3.633,3.633,0,0,1-2.086-.67,5.552,5.552,0,0,1-1.283-1.24c-2.488-3.22-2.662-9.3-2.669-9.94,0-1.59.2-3.8,1.448-5.05a3.107,3.107,0,0,1,2.26-.92h0.149a3.107,3.107,0,0,1,2.26.92c1.244,1.25,1.472,3.43,1.449,5.05a16.541,16.541,0,0,1-2.055,7.87,0.825,0.825,0,0,1-.67.39,0.932,0.932,0,0,1-.4-0.12,0.809,0.809,0,0,1-.268-1.08,13.9,13.9,0,0,0,1.835-7.09c0-1.84-.323-3.23-0.992-3.9a1.549,1.549,0,0,0-1.166-.46h-0.133a1.575,1.575,0,0,0-1.173.4c-0.662.67-1.016,2.06-.985,3.91,0,2.28.575,6.74,2.362,9.05a4.136,4.136,0,0,0,.906.89,1.95,1.95,0,0,0,1.2.41,2.5,2.5,0,0,0,.473-0.04,6.45,6.45,0,0,0,3.22-2.91,0.778,0.778,0,0,1,1.078-.25,0.793,0.793,0,0,1,.347.49A0.806,0.806,0,0,1,213.554,8968.1Z" transform="translate(-179 -8948.75)"/>
</svg>
